<svg xmlns="http://www.w3.org/2000/svg" xmlns:xlink="http://www.w3.org/1999/xlink" preserveAspectRatio="xMidYMid" width="30" height="30" viewBox="0 0 30 30">
  <defs>
    <style>

      .cls-2 {
        fill: #ffffff;
      }
    </style>
  </defs>
  <path d="M5.466,0.010 C3.960,0.010 2.674,0.545 1.605,1.614 C0.536,2.683 0.002,3.970 0.002,5.475 C0.002,5.475 0.002,23.689 0.002,23.689 C0.002,25.194 0.536,26.481 1.605,27.550 C2.674,28.619 3.960,29.153 5.466,29.153 C5.466,29.153 15.560,29.153 15.560,29.153 C15.560,29.153 15.560,17.864 15.560,17.864 C15.560,17.864 11.765,17.864 11.765,17.864 C11.765,17.864 11.765,13.462 11.765,13.462 C11.765,13.462 15.560,13.462 15.560,13.462 C15.560,13.462 15.560,10.218 15.560,10.218 C15.560,8.371 16.075,6.942 17.106,5.930 C18.137,4.918 19.512,4.412 21.233,4.412 C22.687,4.412 23.813,4.469 24.610,4.583 C24.610,4.583 24.610,8.510 24.610,8.510 C24.610,8.510 22.295,8.529 22.295,8.529 C21.435,8.529 20.856,8.707 20.559,9.061 C20.262,9.415 20.113,9.946 20.113,10.654 C20.113,10.654 20.113,13.462 20.113,13.462 C20.113,13.462 24.458,13.462 24.458,13.462 C24.458,13.462 23.889,17.864 23.889,17.864 C23.889,17.864 20.113,17.864 20.113,17.864 C20.113,17.864 20.113,29.153 20.113,29.153 C20.113,29.153 23.680,29.153 23.680,29.153 C25.185,29.153 26.472,28.619 27.541,27.550 C28.610,26.481 29.144,25.194 29.144,23.689 C29.144,23.689 29.144,5.475 29.144,5.475 C29.144,3.970 28.610,2.683 27.541,1.614 C26.472,0.545 25.185,0.010 23.680,0.010 C23.680,0.010 5.466,0.010 5.466,0.010 Z" id="path-1" class="cls-2" fill-rule="evenodd"/>
</svg>
