<svg xmlns="http://www.w3.org/2000/svg" xmlns:xlink="http://www.w3.org/1999/xlink" preserveAspectRatio="xMidYMid" width="30" height="30" viewBox="0 0 30 30">
  <defs>
    <style>

      .cls-2 {
        fill: #ffffff;
      }
    </style>
  </defs>
  <path d="M22.280,11.200 C22.292,11.314 22.298,11.485 22.298,11.712 C22.298,12.775 22.143,13.841 21.834,14.909 C21.524,15.978 21.049,17.003 20.411,17.983 C19.772,18.963 19.010,19.830 18.124,20.582 C17.239,21.335 16.176,21.936 14.937,22.385 C13.697,22.834 12.369,23.058 10.953,23.058 C8.752,23.058 6.715,22.464 4.843,21.275 C5.147,21.313 5.463,21.332 5.792,21.332 C7.626,21.332 9.276,20.763 10.744,19.624 C9.883,19.612 9.115,19.346 8.439,18.827 C7.762,18.309 7.291,17.651 7.025,16.854 C7.354,16.905 7.600,16.930 7.765,16.930 C8.043,16.930 8.366,16.880 8.733,16.778 C7.809,16.601 7.031,16.143 6.399,15.403 C5.766,14.663 5.450,13.818 5.450,12.870 C5.450,12.870 5.450,12.832 5.450,12.832 C6.121,13.148 6.753,13.312 7.348,13.325 C6.196,12.554 5.621,11.447 5.621,10.005 C5.621,9.297 5.804,8.626 6.171,7.993 C7.170,9.221 8.385,10.201 9.814,10.934 C11.243,11.668 12.774,12.079 14.406,12.168 C14.342,11.928 14.311,11.624 14.311,11.257 C14.311,10.157 14.700,9.217 15.478,8.439 C16.256,7.662 17.195,7.273 18.295,7.273 C19.459,7.273 20.426,7.690 21.198,8.525 C22.071,8.361 22.918,8.038 23.740,7.557 C23.424,8.531 22.836,9.271 21.976,9.777 C22.798,9.663 23.563,9.448 24.272,9.132 C23.740,9.942 23.076,10.631 22.280,11.200 C22.280,11.200 22.280,11.200 22.280,11.200 ZM27.526,1.590 C26.457,0.521 25.170,-0.013 23.665,-0.013 C23.665,-0.013 5.450,-0.013 5.450,-0.013 C3.945,-0.013 2.658,0.521 1.589,1.590 C0.520,2.659 -0.014,3.946 -0.014,5.451 C-0.014,5.451 -0.014,23.666 -0.014,23.666 C-0.014,25.171 0.520,26.458 1.589,27.527 C2.658,28.595 3.945,29.130 5.450,29.130 C5.450,29.130 23.665,29.130 23.665,29.130 C25.170,29.130 26.457,28.595 27.526,27.527 C28.594,26.458 29.129,25.171 29.129,23.666 C29.129,23.666 29.129,5.451 29.129,5.451 C29.129,3.946 28.594,2.659 27.526,1.590 Z" id="path-1" class="cls-2" fill-rule="evenodd"/>
</svg>
